<svg width="360" height="640" viewBox="0 0 360 640" fill="none" xmlns="http://www.w3.org/2000/svg">
<g clip-path="url(#clip0_35_2)">
<rect width="360" height="640" fill="#00CBEC"/>
<path opacity="0.34" d="M196.5 549L6 640L377.5 653L367 67.5L331.5 97H271L296 138.5H226.5L271 242.5H145L214.5 383L145 415.5L196.5 549Z" fill="#345358"/>
<g opacity="0.34">
<path d="M240.5 642.5L196.5 550L147.5 415L365 536.5L196.5 550L365 642.5H240.5Z" fill="#59BACA"/>
<path d="M304.5 356L213.5 382.5L147.5 243.5H270.5L226 139H295.5L270.5 95.5H334L365 72.5L370.5 105L342 139H295.5L282 181L315 211.5L270.5 243.5L282 265L226 317.5L304.5 356Z" fill="#59BACA"/>
</g>
<path opacity="0.34" d="M190.5 428L359 533V189.5L329.5 223.5L337.5 249.5L269.5 316L307.5 358L296.5 412L190.5 428Z" fill="#205E68"/>
<path opacity="0.34" d="M184.5 581L205 639H37.5L184.5 581Z" fill="#1F4D55"/>
<path opacity="0.34" d="M238 562.5L358 627.5V552H321L327 578.5L238 562.5Z" fill="#2AAABF"/>
<path d="M127 423L159.5 520.5L119 488L81 498L127 423Z" fill="#2AAABF"/>
<path d="M251 516.5L197 549.5L145 416L186 484.5L197 458L251 516.5Z" fill="#8CE7F6"/>
<path d="M301 475L182 408.824L301 387V475Z" fill="#2AAABF"/>
<path d="M18 613.5L99 574L46 545.5L18 613.5Z" fill="#2AAABF"/>
<path d="M271 84.5H321L310 44L271 84.5Z" fill="#8CE7F7"/>
<path d="M116.5 488L82 497.5L126 423L116.5 488Z" fill="#8CE7F6"/>
<path d="M99.5 556L127.5 544L99.5 518V556Z" fill="#47848C"/>
</g>
<defs>
<clipPath id="clip0_35_2">
<rect width="360" height="640" fill="white"/>
</clipPath>
</defs>
</svg>
