<svg width="248" height="123" viewBox="0 0 248 123" fill="none" xmlns="http://www.w3.org/2000/svg">
<path d="M78.5 61.5C78.5 75.8953 76.7755 88.8706 74.0215 98.1984C72.6417 102.872 71.0279 106.545 69.3033 109.016C67.5486 111.53 65.9018 112.5 64.5 112.5C63.0982 112.5 61.4514 111.53 59.6967 109.016C57.9721 106.545 56.3583 102.872 54.9785 98.1984C52.2245 88.8706 50.5 75.8953 50.5 61.5C50.5 47.1047 52.2245 34.1294 54.9785 24.8016C56.3583 20.1279 57.9721 16.455 59.6967 13.9843C61.4514 11.4704 63.0982 10.5 64.5 10.5C65.9018 10.5 67.5486 11.4704 69.3033 13.9843C71.0279 16.455 72.6417 20.1279 74.0215 24.8016C76.7755 34.1294 78.5 47.1047 78.5 61.5Z" stroke="white" stroke-width="3"/>
<path d="M74.2277 51.7244C84.3573 61.9041 92.2878 72.2858 96.9354 80.8084C99.2642 85.0788 100.726 88.8049 101.264 91.7578C101.813 94.766 101.346 96.5921 100.383 97.5598C99.4197 98.5275 97.6026 98.9969 94.6092 98.4457C91.6708 97.9046 87.963 96.4358 83.7136 94.0956C75.233 89.425 64.9023 81.4553 54.7727 71.2756C44.6431 61.0959 36.7126 50.7142 32.065 42.1916C29.7362 37.9212 28.2746 34.1951 27.7363 31.2422C27.1878 28.234 27.6548 26.4079 28.6178 25.4402C29.5807 24.4725 31.3978 24.0031 34.3912 24.5543C37.3296 25.0954 41.0374 26.5642 45.2868 28.9044C53.7674 33.575 64.0981 41.5447 74.2277 51.7244Z" stroke="white" stroke-width="3"/>
<path d="M74.2276 71.2755C64.098 81.4552 53.7673 89.4249 45.2866 94.0955C41.0373 96.4358 37.3295 97.9046 34.3911 98.4456C31.3977 98.9968 29.5806 98.5275 28.6176 97.5598C27.6547 96.5921 27.1877 94.766 27.7361 91.7577C28.2745 88.8048 29.7361 85.0787 32.0649 80.8083C36.7124 72.2858 44.643 61.904 54.7726 51.7243C64.9022 41.5446 75.2329 33.5749 83.7135 28.9044C87.9629 26.5641 91.6707 25.0953 94.6091 24.5542C97.6025 24.0031 99.4196 24.4724 100.383 25.4401C101.345 26.4078 101.812 28.2339 101.264 31.2421C100.726 34.195 99.2641 37.9211 96.9353 42.1915C92.2877 50.7141 84.3572 61.0958 74.2276 71.2755Z" stroke="white" stroke-width="3"/>
<path d="M64.2599 75.3263C49.9374 75.075 37.0574 73.1434 27.8242 70.2575C23.1977 68.8116 19.5715 67.1519 17.1436 65.404C14.6715 63.6243 13.7421 61.9836 13.766 60.61C13.7898 59.2364 14.7757 57.6293 17.3081 55.9373C19.7952 54.2757 23.4768 52.7442 28.1506 51.4613C37.4785 48.9011 50.4177 47.4223 64.7402 47.6735C79.0626 47.9248 91.9426 49.8564 101.176 52.7423C105.802 54.1883 109.429 55.848 111.856 57.5958C114.328 59.3756 115.258 61.0162 115.234 62.3899C115.21 63.7635 114.224 65.3705 111.692 67.0625C109.205 68.7241 105.523 70.2557 100.849 71.5385C91.5216 74.0987 78.5823 75.5775 64.2599 75.3263Z" stroke="white" stroke-width="3"/>
<circle cx="106.5" cy="53.5" r="4.5" fill="white"/>
<circle cx="29.5" cy="36.5" r="4.5" fill="white"/>
<path d="M191.416 67.432C191 68.36 190.68 68.824 190.456 68.824C190.296 68.824 190.216 68.536 190.216 67.96L190.168 55.144C190.168 53.224 189.608 52.264 188.488 52.264C187.336 52.264 186.76 53.048 186.76 54.616L186.808 69.784C186.808 72.088 187.864 73.24 189.976 73.24C190.968 73.24 191.8 72.488 192.472 70.984L198.136 58.072C198.552 57.464 198.824 57.16 198.952 57.16C199.144 57.16 199.24 57.544 199.24 58.312V70.6C199.24 72.328 199.8 73.192 200.92 73.192C202.072 73.192 202.648 72.424 202.648 70.888L202.6 55.672C202.6 53.336 201.56 52.168 199.48 52.168C198.68 52.168 197.848 52.952 196.984 54.52L191.416 67.432Z" fill="white"/>
<path d="M219.784 68.632C219.784 68.312 219.912 68.04 220.168 67.816C220.424 67.592 220.856 67.48 221.464 67.48C222.584 67.48 223.144 67.992 223.144 69.016V69.832C223.144 71.944 221.928 73 219.496 73H210.856C208.52 73 207.352 71.864 207.352 69.592V55.912C207.352 53.576 208.536 52.408 210.904 52.408H219.496C221.928 52.408 223.144 53.464 223.144 55.576V56.296C223.144 57.448 222.584 58.024 221.464 58.024C220.344 58.024 219.784 57.656 219.784 56.92C219.784 55.16 218.808 54.28 216.856 54.28H213.592C211.672 54.28 210.712 55.112 210.712 56.776V68.776C210.712 70.408 211.656 71.224 213.544 71.224H216.952C218.84 71.224 219.784 70.36 219.784 68.632Z" fill="white"/>
<path d="M134.856 66.04C133.768 66.04 133.224 65.192 133.224 63.496C133.224 62.472 132.984 61.352 132.504 60.136C132.056 58.888 131.416 57.592 130.584 56.248C130.296 55.832 130.024 55.528 129.768 55.336C129.512 55.144 129.32 55.032 129.192 55C128.904 55 128.76 55.272 128.76 55.816V70.648C128.76 72.184 128.184 72.952 127.032 72.952C125.912 72.952 125.352 72.184 125.352 70.648V55.768C125.352 53.432 126.28 52.264 128.136 52.264H129.048C130.264 52.264 131.384 53.032 132.408 54.568L134.808 58.6L137.256 54.568C137.704 53.864 138.184 53.304 138.696 52.888C139.24 52.472 139.864 52.264 140.568 52.264H141.576C143.4 52.264 144.312 53.432 144.312 55.768V70.648C144.312 72.184 143.752 72.952 142.632 72.952C141.512 72.952 140.952 72.184 140.952 70.648V55.816C140.824 55.272 140.648 55 140.424 55C140.072 55 139.624 55.416 139.08 56.248C138.216 57.592 137.576 58.888 137.16 60.136C136.744 61.352 136.536 62.472 136.536 63.496C136.536 65.192 135.976 66.04 134.856 66.04ZM155.645 71.224H163.517C164.541 71.224 165.053 71.528 165.053 72.136C165.053 72.712 164.557 73 163.565 73H153.148C150.557 73 149.261 71.944 149.261 69.832V55.672C149.261 53.496 150.557 52.408 153.148 52.408H163.565C164.557 52.408 165.053 52.712 165.053 53.32C165.053 53.96 164.541 54.28 163.517 54.28H155.645C153.629 54.28 152.621 55.112 152.621 56.776V58.84C152.621 60.536 153.597 61.384 155.549 61.384H163.469C164.525 61.384 165.053 61.656 165.053 62.2C165.053 62.872 164.541 63.208 163.517 63.208H155.549C153.597 63.208 152.621 64.056 152.621 65.752V68.824C152.621 70.424 153.629 71.224 155.645 71.224ZM166.654 53.32C166.654 52.712 167.214 52.408 168.334 52.408H180.574C181.726 52.408 182.302 52.712 182.302 53.32C182.302 53.96 181.71 54.28 180.526 54.28H178.846C177.022 54.28 176.11 55.112 176.11 56.776V70.792C176.11 72.456 175.55 73.288 174.43 73.288C173.342 73.288 172.798 72.456 172.798 70.792V56.776C172.798 55.112 171.886 54.28 170.062 54.28H168.478C167.262 54.28 166.654 53.96 166.654 53.32Z" fill="white"/>
</svg>
