<svg width="215" height="768" viewBox="0 0 215 768" fill="none" xmlns="http://www.w3.org/2000/svg">
<g clip-path="url(#clip0_84_2)">
<rect x="-12" y="65" width="233" height="765" fill="#197886"/>
<rect x="46" y="72" width="117" height="32" rx="10" fill="white"/>
<line x1="4.96562e-10" y1="120" x2="221" y2="120" stroke="white" stroke-width="2"/>
<path d="M75.31 95C75.17 95 75.051 94.958 74.953 94.874C74.869 94.776 74.827 94.657 74.827 94.517V80.804C74.827 80.65 74.869 80.531 74.953 80.447C75.051 80.349 75.17 80.3 75.31 80.3H76.36C76.528 80.3 76.654 80.342 76.738 80.426C76.822 80.51 76.871 80.58 76.885 80.636L81.337 89.12L85.81 80.636C85.838 80.58 85.887 80.51 85.957 80.426C86.041 80.342 86.167 80.3 86.335 80.3H87.364C87.518 80.3 87.637 80.349 87.721 80.447C87.819 80.531 87.868 80.65 87.868 80.804V94.517C87.868 94.657 87.819 94.776 87.721 94.874C87.637 94.958 87.518 95 87.364 95H86.335C86.195 95 86.076 94.958 85.978 94.874C85.894 94.776 85.852 94.657 85.852 94.517V84.185L82.345 91.031C82.289 91.171 82.205 91.283 82.093 91.367C81.981 91.437 81.841 91.472 81.673 91.472H81.022C80.84 91.472 80.693 91.437 80.581 91.367C80.483 91.283 80.399 91.171 80.329 91.031L76.822 84.185V94.517C76.822 94.657 76.773 94.776 76.675 94.874C76.591 94.958 76.479 95 76.339 95H75.31ZM91.9829 95C91.8289 95 91.7099 94.958 91.6259 94.874C91.5419 94.776 91.4999 94.657 91.4999 94.517V80.804C91.4999 80.65 91.5419 80.531 91.6259 80.447C91.7099 80.349 91.8289 80.3 91.9829 80.3H100.656C100.81 80.3 100.929 80.349 101.013 80.447C101.097 80.531 101.139 80.65 101.139 80.804V81.602C101.139 81.756 101.097 81.875 101.013 81.959C100.929 82.043 100.81 82.085 100.656 82.085H93.5159V86.684H100.194C100.348 86.684 100.467 86.733 100.551 86.831C100.635 86.915 100.677 87.034 100.677 87.188V87.965C100.677 88.105 100.635 88.224 100.551 88.322C100.467 88.406 100.348 88.448 100.194 88.448H93.5159V93.215H100.824C100.978 93.215 101.097 93.257 101.181 93.341C101.265 93.425 101.307 93.544 101.307 93.698V94.517C101.307 94.657 101.265 94.776 101.181 94.874C101.097 94.958 100.978 95 100.824 95H91.9829ZM104.718 95C104.564 95 104.445 94.958 104.361 94.874C104.277 94.776 104.235 94.657 104.235 94.517V80.804C104.235 80.65 104.277 80.531 104.361 80.447C104.445 80.349 104.564 80.3 104.718 80.3H105.789C105.943 80.3 106.062 80.349 106.146 80.447C106.244 80.531 106.293 80.65 106.293 80.804V86.6H113.517V80.804C113.517 80.65 113.559 80.531 113.643 80.447C113.741 80.349 113.86 80.3 114 80.3H115.071C115.225 80.3 115.344 80.349 115.428 80.447C115.526 80.531 115.575 80.65 115.575 80.804V94.517C115.575 94.657 115.526 94.776 115.428 94.874C115.344 94.958 115.225 95 115.071 95H114C113.86 95 113.741 94.958 113.643 94.874C113.559 94.776 113.517 94.657 113.517 94.517V88.49H106.293V94.517C106.293 94.657 106.244 94.776 106.146 94.874C106.062 94.958 105.943 95 105.789 95H104.718ZM130.231 95.21C129.223 95.21 128.355 95.063 127.627 94.769C126.913 94.475 126.325 94.076 125.863 93.572C125.401 93.054 125.051 92.452 124.813 91.766C124.589 91.066 124.456 90.317 124.414 89.519C124.4 89.337 124.393 89.162 124.393 88.994C124.393 88.826 124.393 88.658 124.393 88.49H121.264V94.517C121.264 94.657 121.215 94.776 121.117 94.874C121.033 94.958 120.914 95 120.76 95H119.689C119.535 95 119.416 94.958 119.332 94.874C119.248 94.776 119.206 94.657 119.206 94.517V80.783C119.206 80.643 119.248 80.531 119.332 80.447C119.416 80.349 119.535 80.3 119.689 80.3H120.76C120.914 80.3 121.033 80.349 121.117 80.447C121.215 80.531 121.264 80.643 121.264 80.783V86.6H124.393C124.393 86.474 124.393 86.341 124.393 86.201C124.407 86.047 124.421 85.893 124.435 85.739C124.477 84.983 124.61 84.262 124.834 83.576C125.072 82.89 125.415 82.288 125.863 81.77C126.325 81.252 126.913 80.846 127.627 80.552C128.355 80.244 129.223 80.09 130.231 80.09C131.267 80.09 132.142 80.244 132.856 80.552C133.584 80.846 134.179 81.259 134.641 81.791C135.103 82.323 135.446 82.939 135.67 83.639C135.894 84.339 136.02 85.088 136.048 85.886C136.076 86.502 136.09 87.097 136.09 87.671C136.09 88.231 136.076 88.819 136.048 89.435C136.02 90.247 135.894 91.003 135.67 91.703C135.446 92.403 135.103 93.019 134.641 93.551C134.179 94.069 133.584 94.475 132.856 94.769C132.142 95.063 131.267 95.21 130.231 95.21ZM130.231 93.425C130.945 93.425 131.575 93.292 132.121 93.026C132.667 92.76 133.101 92.333 133.423 91.745C133.759 91.157 133.934 90.38 133.948 89.414C133.976 88.784 133.99 88.196 133.99 87.65C133.99 87.09 133.976 86.502 133.948 85.886C133.934 84.92 133.759 84.143 133.423 83.555C133.101 82.967 132.667 82.54 132.121 82.274C131.575 82.008 130.945 81.875 130.231 81.875C129.545 81.875 128.922 82.008 128.362 82.274C127.816 82.54 127.382 82.967 127.06 83.555C126.738 84.143 126.556 84.92 126.514 85.886C126.5 86.502 126.493 87.09 126.493 87.65C126.493 88.196 126.5 88.784 126.514 89.414C126.556 90.38 126.731 91.157 127.039 91.745C127.361 92.333 127.795 92.76 128.341 93.026C128.901 93.292 129.531 93.425 130.231 93.425Z" fill="#197886"/>
</g>
<defs>
<clipPath id="clip0_84_2">
<rect width="215" height="768" fill="white"/>
</clipPath>
</defs>
</svg>
