<svg width="215" height="768" viewBox="0 0 215 768" fill="none" xmlns="http://www.w3.org/2000/svg">
<g clip-path="url(#clip0_84_2)">
<rect x="-12" y="65" width="233" height="765" fill="#197886"/>
<rect x="34" y="71" width="117" height="32" rx="10" fill="white"/>
<line x1="4.96562e-10" y1="120" x2="221" y2="120" stroke="white" stroke-width="2"/>
<path d="M63.31 94C63.17 94 63.051 93.958 62.953 93.874C62.869 93.776 62.827 93.657 62.827 93.517V79.804C62.827 79.65 62.869 79.531 62.953 79.447C63.051 79.349 63.17 79.3 63.31 79.3H64.36C64.528 79.3 64.654 79.342 64.738 79.426C64.822 79.51 64.871 79.58 64.885 79.636L69.337 88.12L73.81 79.636C73.838 79.58 73.887 79.51 73.957 79.426C74.041 79.342 74.167 79.3 74.335 79.3H75.364C75.518 79.3 75.637 79.349 75.721 79.447C75.819 79.531 75.868 79.65 75.868 79.804V93.517C75.868 93.657 75.819 93.776 75.721 93.874C75.637 93.958 75.518 94 75.364 94H74.335C74.195 94 74.076 93.958 73.978 93.874C73.894 93.776 73.852 93.657 73.852 93.517V83.185L70.345 90.031C70.289 90.171 70.205 90.283 70.093 90.367C69.981 90.437 69.841 90.472 69.673 90.472H69.022C68.84 90.472 68.693 90.437 68.581 90.367C68.483 90.283 68.399 90.171 68.329 90.031L64.822 83.185V93.517C64.822 93.657 64.773 93.776 64.675 93.874C64.591 93.958 64.479 94 64.339 94H63.31ZM79.9829 94C79.8289 94 79.7099 93.958 79.6259 93.874C79.5419 93.776 79.4999 93.657 79.4999 93.517V79.804C79.4999 79.65 79.5419 79.531 79.6259 79.447C79.7099 79.349 79.8289 79.3 79.9829 79.3H88.6559C88.8099 79.3 88.9289 79.349 89.0129 79.447C89.0969 79.531 89.1389 79.65 89.1389 79.804V80.602C89.1389 80.756 89.0969 80.875 89.0129 80.959C88.9289 81.043 88.8099 81.085 88.6559 81.085H81.5159V85.684H88.1939C88.3479 85.684 88.4669 85.733 88.5509 85.831C88.6349 85.915 88.6769 86.034 88.6769 86.188V86.965C88.6769 87.105 88.6349 87.224 88.5509 87.322C88.4669 87.406 88.3479 87.448 88.1939 87.448H81.5159V92.215H88.8239C88.9779 92.215 89.0969 92.257 89.1809 92.341C89.2649 92.425 89.3069 92.544 89.3069 92.698V93.517C89.3069 93.657 89.2649 93.776 89.1809 93.874C89.0969 93.958 88.9779 94 88.8239 94H79.9829ZM92.7182 94C92.5642 94 92.4452 93.958 92.3612 93.874C92.2772 93.776 92.2352 93.657 92.2352 93.517V79.804C92.2352 79.65 92.2772 79.531 92.3612 79.447C92.4452 79.349 92.5642 79.3 92.7182 79.3H93.7892C93.9432 79.3 94.0622 79.349 94.1462 79.447C94.2442 79.531 94.2932 79.65 94.2932 79.804V85.6H101.517V79.804C101.517 79.65 101.559 79.531 101.643 79.447C101.741 79.349 101.86 79.3 102 79.3H103.071C103.225 79.3 103.344 79.349 103.428 79.447C103.526 79.531 103.575 79.65 103.575 79.804V93.517C103.575 93.657 103.526 93.776 103.428 93.874C103.344 93.958 103.225 94 103.071 94H102C101.86 94 101.741 93.958 101.643 93.874C101.559 93.776 101.517 93.657 101.517 93.517V87.49H94.2932V93.517C94.2932 93.657 94.2442 93.776 94.1462 93.874C94.0622 93.958 93.9432 94 93.7892 94H92.7182ZM118.231 94.21C117.223 94.21 116.355 94.063 115.627 93.769C114.913 93.475 114.325 93.076 113.863 92.572C113.401 92.054 113.051 91.452 112.813 90.766C112.589 90.066 112.456 89.317 112.414 88.519C112.4 88.337 112.393 88.162 112.393 87.994C112.393 87.826 112.393 87.658 112.393 87.49H109.264V93.517C109.264 93.657 109.215 93.776 109.117 93.874C109.033 93.958 108.914 94 108.76 94H107.689C107.535 94 107.416 93.958 107.332 93.874C107.248 93.776 107.206 93.657 107.206 93.517V79.783C107.206 79.643 107.248 79.531 107.332 79.447C107.416 79.349 107.535 79.3 107.689 79.3H108.76C108.914 79.3 109.033 79.349 109.117 79.447C109.215 79.531 109.264 79.643 109.264 79.783V85.6H112.393C112.393 85.474 112.393 85.341 112.393 85.201C112.407 85.047 112.421 84.893 112.435 84.739C112.477 83.983 112.61 83.262 112.834 82.576C113.072 81.89 113.415 81.288 113.863 80.77C114.325 80.252 114.913 79.846 115.627 79.552C116.355 79.244 117.223 79.09 118.231 79.09C119.267 79.09 120.142 79.244 120.856 79.552C121.584 79.846 122.179 80.259 122.641 80.791C123.103 81.323 123.446 81.939 123.67 82.639C123.894 83.339 124.02 84.088 124.048 84.886C124.076 85.502 124.09 86.097 124.09 86.671C124.09 87.231 124.076 87.819 124.048 88.435C124.02 89.247 123.894 90.003 123.67 90.703C123.446 91.403 123.103 92.019 122.641 92.551C122.179 93.069 121.584 93.475 120.856 93.769C120.142 94.063 119.267 94.21 118.231 94.21ZM118.231 92.425C118.945 92.425 119.575 92.292 120.121 92.026C120.667 91.76 121.101 91.333 121.423 90.745C121.759 90.157 121.934 89.38 121.948 88.414C121.976 87.784 121.99 87.196 121.99 86.65C121.99 86.09 121.976 85.502 121.948 84.886C121.934 83.92 121.759 83.143 121.423 82.555C121.101 81.967 120.667 81.54 120.121 81.274C119.575 81.008 118.945 80.875 118.231 80.875C117.545 80.875 116.922 81.008 116.362 81.274C115.816 81.54 115.382 81.967 115.06 82.555C114.738 83.143 114.556 83.92 114.514 84.886C114.5 85.502 114.493 86.09 114.493 86.65C114.493 87.196 114.5 87.784 114.514 88.414C114.556 89.38 114.731 90.157 115.039 90.745C115.361 91.333 115.795 91.76 116.341 92.026C116.901 92.292 117.531 92.425 118.231 92.425Z" fill="#197886"/>
</g>
<defs>
<clipPath id="clip0_84_2">
<rect width="215" height="768" fill="white"/>
</clipPath>
</defs>
</svg>
